<mxfile host="Electron" modified="2023-09-11T16:14:16.085Z" agent="Mozilla/5.0 (Windows NT 10.0; Win64; x64) AppleWebKit/537.36 (KHTML, like Gecko) draw.io/21.6.5 Chrome/114.0.5735.243 Electron/25.3.1 Safari/537.36" etag="o6fuRTZHdYwW_Qp9BRxS" version="21.6.5" type="device">
  <diagram id="C5RBs43oDa-KdzZeNtuy" name="Page-1">
    <mxGraphModel dx="1182" dy="683" grid="1" gridSize="10" guides="1" tooltips="1" connect="1" arrows="1" fold="1" page="1" pageScale="1" pageWidth="1169" pageHeight="827" math="0" shadow="0">
      <root>
        <mxCell id="WIyWlLk6GJQsqaUBKTNV-0" />
        <mxCell id="WIyWlLk6GJQsqaUBKTNV-1" parent="WIyWlLk6GJQsqaUBKTNV-0" />
        <mxCell id="3ir23llihvkHTGynPBkR-8" value="" style="edgeStyle=orthogonalEdgeStyle;rounded=0;orthogonalLoop=1;jettySize=auto;html=1;strokeWidth=2;fontStyle=1;exitX=0.5;exitY=1;exitDx=0;exitDy=0;exitPerimeter=0;" parent="WIyWlLk6GJQsqaUBKTNV-1" source="3ir23llihvkHTGynPBkR-4" target="3ir23llihvkHTGynPBkR-7" edge="1">
          <mxGeometry relative="1" as="geometry">
            <Array as="points">
              <mxPoint x="1290" y="230" />
              <mxPoint x="1190" y="230" />
              <mxPoint x="1190" y="310" />
              <mxPoint x="1303" y="310" />
            </Array>
          </mxGeometry>
        </mxCell>
        <mxCell id="3ir23llihvkHTGynPBkR-4" value="Alloc a CPU" style="strokeWidth=2;html=1;shape=mxgraph.flowchart.start_1;whiteSpace=wrap;fontStyle=1;fillColor=#fff2cc;strokeColor=#d6b656;" parent="WIyWlLk6GJQsqaUBKTNV-1" vertex="1">
          <mxGeometry x="1240" y="150" width="100" height="60" as="geometry" />
        </mxCell>
        <mxCell id="3ir23llihvkHTGynPBkR-10" value="" style="edgeStyle=orthogonalEdgeStyle;rounded=0;orthogonalLoop=1;jettySize=auto;html=1;strokeWidth=2;fontStyle=1" parent="WIyWlLk6GJQsqaUBKTNV-1" source="3ir23llihvkHTGynPBkR-7" target="3ir23llihvkHTGynPBkR-9" edge="1">
          <mxGeometry relative="1" as="geometry" />
        </mxCell>
        <mxCell id="3ir23llihvkHTGynPBkR-34" value="yes" style="edgeLabel;html=1;align=center;verticalAlign=middle;resizable=0;points=[];fontStyle=1" parent="3ir23llihvkHTGynPBkR-10" vertex="1" connectable="0">
          <mxGeometry x="-0.0978" y="-2" relative="1" as="geometry">
            <mxPoint x="1" y="-3" as="offset" />
          </mxGeometry>
        </mxCell>
        <mxCell id="3ir23llihvkHTGynPBkR-21" value="" style="edgeStyle=orthogonalEdgeStyle;rounded=0;orthogonalLoop=1;jettySize=auto;html=1;exitX=0;exitY=0.5;exitDx=0;exitDy=0;entryX=1;entryY=0.5;entryDx=0;entryDy=0;strokeWidth=2;fontStyle=1" parent="WIyWlLk6GJQsqaUBKTNV-1" source="3ir23llihvkHTGynPBkR-7" target="3ir23llihvkHTGynPBkR-20" edge="1">
          <mxGeometry relative="1" as="geometry">
            <mxPoint x="1160" y="360" as="sourcePoint" />
            <mxPoint x="1000" y="292.5" as="targetPoint" />
          </mxGeometry>
        </mxCell>
        <mxCell id="3ir23llihvkHTGynPBkR-35" value="No" style="edgeLabel;html=1;align=center;verticalAlign=middle;resizable=0;points=[];fontStyle=1" parent="3ir23llihvkHTGynPBkR-21" vertex="1" connectable="0">
          <mxGeometry x="-0.0125" y="1" relative="1" as="geometry">
            <mxPoint as="offset" />
          </mxGeometry>
        </mxCell>
        <mxCell id="3ir23llihvkHTGynPBkR-7" value="Exist ready &lt;br&gt;coroutine?" style="rhombus;whiteSpace=wrap;html=1;strokeWidth=2;fontStyle=1" parent="WIyWlLk6GJQsqaUBKTNV-1" vertex="1">
          <mxGeometry x="1218" y="340" width="170" height="50" as="geometry" />
        </mxCell>
        <mxCell id="3ir23llihvkHTGynPBkR-12" value="" style="edgeStyle=orthogonalEdgeStyle;rounded=0;orthogonalLoop=1;jettySize=auto;html=1;entryX=0.5;entryY=0;entryDx=0;entryDy=0;strokeWidth=2;fontStyle=1" parent="WIyWlLk6GJQsqaUBKTNV-1" source="3ir23llihvkHTGynPBkR-9" target="3ir23llihvkHTGynPBkR-13" edge="1">
          <mxGeometry relative="1" as="geometry">
            <mxPoint x="1303" y="572.5" as="targetPoint" />
          </mxGeometry>
        </mxCell>
        <mxCell id="3ir23llihvkHTGynPBkR-9" value="Select and execute a coroutine" style="whiteSpace=wrap;html=1;strokeWidth=2;fontStyle=1" parent="WIyWlLk6GJQsqaUBKTNV-1" vertex="1">
          <mxGeometry x="1243" y="430" width="120" height="45" as="geometry" />
        </mxCell>
        <mxCell id="3ir23llihvkHTGynPBkR-16" value="" style="edgeStyle=orthogonalEdgeStyle;rounded=0;orthogonalLoop=1;jettySize=auto;html=1;entryX=0.5;entryY=0;entryDx=0;entryDy=0;strokeWidth=2;fontStyle=1" parent="WIyWlLk6GJQsqaUBKTNV-1" source="3ir23llihvkHTGynPBkR-13" target="3ir23llihvkHTGynPBkR-17" edge="1">
          <mxGeometry relative="1" as="geometry">
            <mxPoint x="1303" y="700" as="targetPoint" />
          </mxGeometry>
        </mxCell>
        <mxCell id="3ir23llihvkHTGynPBkR-41" value="Yes" style="edgeLabel;html=1;align=center;verticalAlign=middle;resizable=0;points=[];fontStyle=1" parent="3ir23llihvkHTGynPBkR-16" vertex="1" connectable="0">
          <mxGeometry x="0.22" y="-3" relative="1" as="geometry">
            <mxPoint x="3" y="-7" as="offset" />
          </mxGeometry>
        </mxCell>
        <mxCell id="xqHXs59YAC4SyxUsQ0_j-7" style="edgeStyle=orthogonalEdgeStyle;rounded=0;orthogonalLoop=1;jettySize=auto;html=1;exitX=0;exitY=0.5;exitDx=0;exitDy=0;entryX=0.5;entryY=0;entryDx=0;entryDy=0;strokeWidth=2;" edge="1" parent="WIyWlLk6GJQsqaUBKTNV-1" source="3ir23llihvkHTGynPBkR-13" target="3ir23llihvkHTGynPBkR-18">
          <mxGeometry relative="1" as="geometry">
            <Array as="points">
              <mxPoint x="1198" y="517" />
              <mxPoint x="1198" y="660" />
              <mxPoint x="1303" y="660" />
            </Array>
          </mxGeometry>
        </mxCell>
        <mxCell id="xqHXs59YAC4SyxUsQ0_j-8" value="&lt;b style=&quot;border-color: var(--border-color);&quot;&gt;No,&amp;nbsp;Coroutine &lt;br&gt;is blocked&lt;/b&gt;" style="edgeLabel;html=1;align=center;verticalAlign=middle;resizable=0;points=[];" vertex="1" connectable="0" parent="xqHXs59YAC4SyxUsQ0_j-7">
          <mxGeometry x="0.155" y="1" relative="1" as="geometry">
            <mxPoint x="-14" y="-99" as="offset" />
          </mxGeometry>
        </mxCell>
        <mxCell id="3ir23llihvkHTGynPBkR-13" value="Completed?" style="rhombus;whiteSpace=wrap;html=1;strokeWidth=2;fontStyle=1" parent="WIyWlLk6GJQsqaUBKTNV-1" vertex="1">
          <mxGeometry x="1218" y="492" width="170" height="50" as="geometry" />
        </mxCell>
        <mxCell id="xqHXs59YAC4SyxUsQ0_j-0" style="edgeStyle=orthogonalEdgeStyle;rounded=0;orthogonalLoop=1;jettySize=auto;html=1;exitX=0.5;exitY=1;exitDx=0;exitDy=0;entryX=0.5;entryY=0;entryDx=0;entryDy=0;strokeWidth=2;" edge="1" parent="WIyWlLk6GJQsqaUBKTNV-1" source="3ir23llihvkHTGynPBkR-17" target="3ir23llihvkHTGynPBkR-18">
          <mxGeometry relative="1" as="geometry" />
        </mxCell>
        <mxCell id="3ir23llihvkHTGynPBkR-17" value="Delete coroutine" style="whiteSpace=wrap;html=1;strokeWidth=2;fontStyle=1" parent="WIyWlLk6GJQsqaUBKTNV-1" vertex="1">
          <mxGeometry x="1243" y="580" width="120" height="45" as="geometry" />
        </mxCell>
        <mxCell id="xqHXs59YAC4SyxUsQ0_j-1" style="edgeStyle=orthogonalEdgeStyle;rounded=0;orthogonalLoop=1;jettySize=auto;html=1;exitX=0.5;exitY=1;exitDx=0;exitDy=0;entryX=0.5;entryY=0;entryDx=0;entryDy=0;strokeWidth=2;" edge="1" parent="WIyWlLk6GJQsqaUBKTNV-1" source="3ir23llihvkHTGynPBkR-18" target="3ir23llihvkHTGynPBkR-7">
          <mxGeometry relative="1" as="geometry">
            <Array as="points">
              <mxPoint x="1303" y="780" />
              <mxPoint x="1423" y="780" />
              <mxPoint x="1423" y="310" />
              <mxPoint x="1303" y="310" />
            </Array>
          </mxGeometry>
        </mxCell>
        <mxCell id="xqHXs59YAC4SyxUsQ0_j-17" value="No" style="edgeLabel;html=1;align=center;verticalAlign=middle;resizable=0;points=[];fontStyle=1" vertex="1" connectable="0" parent="xqHXs59YAC4SyxUsQ0_j-1">
          <mxGeometry x="-0.3722" y="2" relative="1" as="geometry">
            <mxPoint y="-125" as="offset" />
          </mxGeometry>
        </mxCell>
        <mxCell id="xqHXs59YAC4SyxUsQ0_j-29" style="edgeStyle=orthogonalEdgeStyle;rounded=0;orthogonalLoop=1;jettySize=auto;html=1;exitX=0;exitY=0.5;exitDx=0;exitDy=0;entryX=1;entryY=0.5;entryDx=0;entryDy=0;strokeWidth=2;" edge="1" parent="WIyWlLk6GJQsqaUBKTNV-1" source="3ir23llihvkHTGynPBkR-18" target="3ir23llihvkHTGynPBkR-33">
          <mxGeometry relative="1" as="geometry" />
        </mxCell>
        <mxCell id="xqHXs59YAC4SyxUsQ0_j-30" value="Yes" style="edgeLabel;html=1;align=center;verticalAlign=middle;resizable=0;points=[];fontStyle=1" vertex="1" connectable="0" parent="xqHXs59YAC4SyxUsQ0_j-29">
          <mxGeometry x="-0.2374" relative="1" as="geometry">
            <mxPoint as="offset" />
          </mxGeometry>
        </mxCell>
        <mxCell id="3ir23llihvkHTGynPBkR-18" value="Should yield?" style="rhombus;whiteSpace=wrap;html=1;strokeWidth=2;fontStyle=1" parent="WIyWlLk6GJQsqaUBKTNV-1" vertex="1">
          <mxGeometry x="1218" y="690" width="170" height="50" as="geometry" />
        </mxCell>
        <mxCell id="3ir23llihvkHTGynPBkR-26" value="" style="edgeStyle=orthogonalEdgeStyle;rounded=0;orthogonalLoop=1;jettySize=auto;html=1;entryX=0.5;entryY=1;entryDx=0;entryDy=0;strokeWidth=2;fontStyle=1" parent="WIyWlLk6GJQsqaUBKTNV-1" source="3ir23llihvkHTGynPBkR-20" target="3ir23llihvkHTGynPBkR-27" edge="1">
          <mxGeometry relative="1" as="geometry">
            <mxPoint x="1021" y="410" as="targetPoint" />
          </mxGeometry>
        </mxCell>
        <mxCell id="3ir23llihvkHTGynPBkR-37" value="Yes" style="edgeLabel;html=1;align=center;verticalAlign=middle;resizable=0;points=[];fontStyle=1" parent="3ir23llihvkHTGynPBkR-26" vertex="1" connectable="0">
          <mxGeometry x="-0.1333" y="1" relative="1" as="geometry">
            <mxPoint as="offset" />
          </mxGeometry>
        </mxCell>
        <mxCell id="xqHXs59YAC4SyxUsQ0_j-10" value="" style="edgeStyle=orthogonalEdgeStyle;rounded=0;orthogonalLoop=1;jettySize=auto;html=1;strokeWidth=2;" edge="1" parent="WIyWlLk6GJQsqaUBKTNV-1" source="3ir23llihvkHTGynPBkR-20" target="xqHXs59YAC4SyxUsQ0_j-9">
          <mxGeometry relative="1" as="geometry" />
        </mxCell>
        <mxCell id="xqHXs59YAC4SyxUsQ0_j-11" value="No" style="edgeLabel;html=1;align=center;verticalAlign=middle;resizable=0;points=[];fontStyle=1" vertex="1" connectable="0" parent="xqHXs59YAC4SyxUsQ0_j-10">
          <mxGeometry x="-0.6607" y="2" relative="1" as="geometry">
            <mxPoint x="-2" y="9" as="offset" />
          </mxGeometry>
        </mxCell>
        <mxCell id="3ir23llihvkHTGynPBkR-20" value="In kernel?" style="rhombus;whiteSpace=wrap;html=1;strokeWidth=2;fontStyle=1" parent="WIyWlLk6GJQsqaUBKTNV-1" vertex="1">
          <mxGeometry x="901" y="440" width="170" height="50" as="geometry" />
        </mxCell>
        <mxCell id="3ir23llihvkHTGynPBkR-22" value="Exit" style="strokeWidth=2;html=1;shape=mxgraph.flowchart.start_1;whiteSpace=wrap;fontStyle=1;fillColor=#fff2cc;strokeColor=#d6b656;" parent="WIyWlLk6GJQsqaUBKTNV-1" vertex="1">
          <mxGeometry x="1140" y="780" width="100" height="60" as="geometry" />
        </mxCell>
        <mxCell id="jpwbsR-ChezqSOPJaM9C-0" style="edgeStyle=orthogonalEdgeStyle;rounded=0;orthogonalLoop=1;jettySize=auto;html=1;exitX=0.5;exitY=0;exitDx=0;exitDy=0;entryX=0.5;entryY=0;entryDx=0;entryDy=0;strokeWidth=2;fontStyle=1" parent="WIyWlLk6GJQsqaUBKTNV-1" source="3ir23llihvkHTGynPBkR-27" target="3ir23llihvkHTGynPBkR-7" edge="1">
          <mxGeometry relative="1" as="geometry">
            <Array as="points">
              <mxPoint x="986" y="310" />
              <mxPoint x="1303" y="310" />
            </Array>
          </mxGeometry>
        </mxCell>
        <mxCell id="3ir23llihvkHTGynPBkR-27" value="Idle" style="whiteSpace=wrap;html=1;strokeWidth=2;fontStyle=1" parent="WIyWlLk6GJQsqaUBKTNV-1" vertex="1">
          <mxGeometry x="926" y="350" width="120" height="45" as="geometry" />
        </mxCell>
        <mxCell id="3ir23llihvkHTGynPBkR-33" value="Yield" style="whiteSpace=wrap;html=1;strokeWidth=2;fontStyle=1" parent="WIyWlLk6GJQsqaUBKTNV-1" vertex="1">
          <mxGeometry x="1049" y="692.5" width="120" height="45" as="geometry" />
        </mxCell>
        <mxCell id="xqHXs59YAC4SyxUsQ0_j-18" style="edgeStyle=orthogonalEdgeStyle;rounded=0;orthogonalLoop=1;jettySize=auto;html=1;exitX=0.5;exitY=1;exitDx=0;exitDy=0;" edge="1" parent="WIyWlLk6GJQsqaUBKTNV-1" source="xqHXs59YAC4SyxUsQ0_j-9">
          <mxGeometry relative="1" as="geometry">
            <mxPoint x="986.2758620689656" y="580.2068965517242" as="targetPoint" />
          </mxGeometry>
        </mxCell>
        <mxCell id="xqHXs59YAC4SyxUsQ0_j-20" style="edgeStyle=orthogonalEdgeStyle;rounded=0;orthogonalLoop=1;jettySize=auto;html=1;exitX=1;exitY=0.5;exitDx=0;exitDy=0;entryX=0.5;entryY=0;entryDx=0;entryDy=0;strokeWidth=2;" edge="1" parent="WIyWlLk6GJQsqaUBKTNV-1" source="xqHXs59YAC4SyxUsQ0_j-9" target="3ir23llihvkHTGynPBkR-33">
          <mxGeometry relative="1" as="geometry">
            <Array as="points">
              <mxPoint x="1109" y="555" />
            </Array>
          </mxGeometry>
        </mxCell>
        <mxCell id="xqHXs59YAC4SyxUsQ0_j-22" value="Yes" style="edgeLabel;html=1;align=center;verticalAlign=middle;resizable=0;points=[];fontStyle=1" vertex="1" connectable="0" parent="xqHXs59YAC4SyxUsQ0_j-20">
          <mxGeometry x="-0.3052" relative="1" as="geometry">
            <mxPoint x="-1" y="3" as="offset" />
          </mxGeometry>
        </mxCell>
        <mxCell id="xqHXs59YAC4SyxUsQ0_j-21" style="edgeStyle=orthogonalEdgeStyle;rounded=0;orthogonalLoop=1;jettySize=auto;html=1;exitX=0.5;exitY=1;exitDx=0;exitDy=0;strokeWidth=2;" edge="1" parent="WIyWlLk6GJQsqaUBKTNV-1" source="xqHXs59YAC4SyxUsQ0_j-9" target="3ir23llihvkHTGynPBkR-22">
          <mxGeometry relative="1" as="geometry">
            <Array as="points">
              <mxPoint x="986" y="810" />
            </Array>
          </mxGeometry>
        </mxCell>
        <mxCell id="xqHXs59YAC4SyxUsQ0_j-23" value="No" style="edgeLabel;html=1;align=center;verticalAlign=middle;resizable=0;points=[];fontStyle=1" vertex="1" connectable="0" parent="xqHXs59YAC4SyxUsQ0_j-21">
          <mxGeometry x="-0.633" relative="1" as="geometry">
            <mxPoint as="offset" />
          </mxGeometry>
        </mxCell>
        <mxCell id="xqHXs59YAC4SyxUsQ0_j-9" value="Exist blocked &lt;br&gt;coroutine?" style="rhombus;whiteSpace=wrap;html=1;strokeWidth=2;fontStyle=1" vertex="1" parent="WIyWlLk6GJQsqaUBKTNV-1">
          <mxGeometry x="901" y="530" width="170" height="50" as="geometry" />
        </mxCell>
        <mxCell id="xqHXs59YAC4SyxUsQ0_j-34" style="edgeStyle=orthogonalEdgeStyle;rounded=0;orthogonalLoop=1;jettySize=auto;html=1;exitX=0.5;exitY=1;exitDx=0;exitDy=0;exitPerimeter=0;entryX=0.5;entryY=0;entryDx=0;entryDy=0;strokeWidth=2;" edge="1" parent="WIyWlLk6GJQsqaUBKTNV-1" source="xqHXs59YAC4SyxUsQ0_j-31" target="3ir23llihvkHTGynPBkR-7">
          <mxGeometry relative="1" as="geometry">
            <Array as="points">
              <mxPoint x="1080" y="230" />
              <mxPoint x="1190" y="230" />
              <mxPoint x="1190" y="310" />
              <mxPoint x="1303" y="310" />
            </Array>
          </mxGeometry>
        </mxCell>
        <mxCell id="xqHXs59YAC4SyxUsQ0_j-31" value="Appear &lt;br&gt;Ready Coroutine" style="strokeWidth=2;html=1;shape=mxgraph.flowchart.start_1;whiteSpace=wrap;fontStyle=1;fillColor=#fff2cc;strokeColor=#d6b656;" vertex="1" parent="WIyWlLk6GJQsqaUBKTNV-1">
          <mxGeometry x="1030" y="150" width="100" height="60" as="geometry" />
        </mxCell>
      </root>
    </mxGraphModel>
  </diagram>
</mxfile>
